<svg width="20" height="20" viewBox="0 0 20 20" fill="none" xmlns="http://www.w3.org/2000/svg">
<path d="M7.73037 0.788233C9.00037 -0.220767 10.7804 -0.260768 12.0894 0.668233L12.2504 0.788233L18.3394 5.65923C19.0094 6.17823 19.4204 6.94923 19.4904 7.78823L19.5004 7.98923V16.0982C19.5004 18.1882 17.8494 19.8882 15.7804 19.9982H13.7904C12.8394 19.9792 12.0704 19.2392 12.0004 18.3092L11.9904 18.1682V15.3092C11.9904 14.9982 11.7594 14.7392 11.4504 14.6882L11.3604 14.6782H8.68937C8.37037 14.6882 8.11037 14.9182 8.07037 15.2182L8.06037 15.3092V18.1592C8.06037 18.2182 8.04937 18.2882 8.04037 18.3382L8.03037 18.3592L8.01937 18.4282C7.90037 19.2792 7.20037 19.9282 6.33037 19.9892L6.20037 19.9982H4.41037C2.32037 19.9982 0.610366 18.3592 0.500366 16.2982V7.98923C0.509366 7.13823 0.880366 6.34823 1.50037 5.79823L7.73037 0.788233ZM11.3804 1.87823C10.6204 1.26823 9.54037 1.23923 8.74037 1.76823L8.58937 1.87823L2.50937 6.77923C2.16037 7.03823 1.95037 7.42823 1.90037 7.83823L1.88937 7.99823V16.0982C1.88937 17.4282 2.92937 18.5182 4.25037 18.5982H6.20037C6.42037 18.5982 6.61037 18.4492 6.63937 18.2392L6.66037 18.0592L6.67037 18.0082V15.3092C6.67037 14.2392 7.49037 13.3692 8.54037 13.2882H11.3604C12.4294 13.2882 13.2994 14.1092 13.3804 15.1592V18.1682C13.3804 18.3782 13.5304 18.5592 13.7304 18.5982H15.5894C16.9294 18.5982 18.0194 17.5692 18.0994 16.2582L18.1104 16.0982V7.99823C18.0994 7.56923 17.9204 7.16823 17.6104 6.86923L17.4804 6.75823L11.3804 1.87823Z" fill="#EA7C69"/>
</svg>
