<svg width="56" height="56" viewBox="0 0 56 56" fill="none" xmlns="http://www.w3.org/2000/svg">
<rect opacity="0.26" width="56" height="56" rx="12" fill="#EB966A"/>
<path d="M39.6667 11.3333H16.3334C13.5767 11.3333 11.3334 13.5766 11.3334 16.3333V21.0516C11.3334 22.8066 11.97 24.4016 13 25.6283V41.3333C13 41.7753 13.1756 42.1992 13.4882 42.5118C13.8008 42.8243 14.2247 42.9999 14.6667 42.9999H28C28.4421 42.9999 28.866 42.8243 29.1786 42.5118C29.4911 42.1992 29.6667 41.7753 29.6667 41.3333V32.9999H36.3334V41.3333C36.3334 41.7753 36.509 42.1992 36.8215 42.5118C37.1341 42.8243 37.558 42.9999 38 42.9999H41.3334C41.7754 42.9999 42.1993 42.8243 42.5119 42.5118C42.8244 42.1992 43 41.7753 43 41.3333V25.6266C44.03 24.4016 44.6667 22.8066 44.6667 21.0499V16.3333C44.6667 13.5766 42.4234 11.3333 39.6667 11.3333ZM41.3334 16.3333V21.0516C41.3334 22.9516 39.9184 24.5716 38.1817 24.6633L38 24.6666C36.1617 24.6666 34.6667 23.1716 34.6667 21.3333V14.6666H39.6667C40.5867 14.6666 41.3334 15.4149 41.3334 16.3333ZM24.6667 21.3333V14.6666H31.3334V21.3333C31.3334 23.1716 29.8384 24.6666 28 24.6666C26.1617 24.6666 24.6667 23.1716 24.6667 21.3333ZM14.6667 16.3333C14.6667 15.4149 15.4134 14.6666 16.3334 14.6666H21.3334V21.3333C21.3334 23.1716 19.8384 24.6666 18 24.6666L17.8184 24.6616C16.0817 24.5716 14.6667 22.9516 14.6667 21.0516V16.3333ZM24.6667 34.6666H18V29.6666H24.6667V34.6666Z" fill="url(#paint0_linear_4617_5039)"/>
<defs>
<linearGradient id="paint0_linear_4617_5039" x1="28" y1="11.3333" x2="28" y2="42.9999" gradientUnits="userSpaceOnUse">
<stop stop-color="#EA9769"/>
<stop offset="1" stop-color="#EA6969"/>
</linearGradient>
</defs>
</svg>
